<?xml version="1.0" encoding="iso-8859-1"?>
<!-- Generator: Adobe Illustrator 19.0.0, SVG Export Plug-In . SVG Version: 6.00 Build 0)  -->
<svg version="1.1" id="Layer_1" xmlns="http://www.w3.org/2000/svg" xmlns:xlink="http://www.w3.org/1999/xlink" x="0px" y="0px"
	 viewBox="0 0 511.999 511.999" style="enable-background:new 0 0 511.999 511.999;" xml:space="preserve">
<g>
	<g>
		<circle cx="123.145" cy="56.493" r="42.187"/>
	</g>
</g>
<g>
	<g>
		<path d="M293.461,96.778c-7.169-8.421-20.056-9.653-28.693-2.302c-9.192,7.826-47.957,40.829-53.613,45.645l-74.424-21.319
			l31.199,0.743c-5.109-5.004-12.09-8.107-19.806-8.141l-40.305-0.165c-5.104-0.021-10.154,1.049-14.811,3.137l-80.976,36.316
			c-9.478,4.25-14.236,14.952-11.042,24.835l28.913,89.462c3.457,10.697,14.93,16.567,25.629,13.109
			c10.697-3.458,16.567-14.931,13.109-25.629l-23.301-72.094l34.711-15.562c0.912,123.091,0.972,110.643,0.522,113.458
			l-13.944,87.254l-39.991,98.552c-5.072,12.5,0.949,26.746,13.45,31.818c12.503,5.073,26.746-0.951,31.818-13.45l41.037-101.132
			c0.695-1.714,1.194-3.502,1.486-5.329l13.183-82.485l21.446,83.443l2.019,96.829c0.28,13.454,11.401,24.189,24.931,23.912
			c13.487-0.281,24.193-11.442,23.911-24.931l-2.078-99.659c-0.039-1.88-0.295-3.749-0.764-5.571l-21.174-82.383l0.398-98.347
			l-47.863-27.82l80.732,24.322c0.006,0.002,0.012,0.002,0.018,0.004c6.69,1.908,13.75,0.212,18.784-4.074l63.184-53.751
			C299.713,118.187,300.75,105.339,293.461,96.778z"/>
	</g>
</g>
<g>
	<g>
		<path d="M511.683,251.085c-0.712-1.505-2.542-2.441-4.567-1.483c-3.024,1.43-6.139,2.579-9.144,3.457
			c-5.648,1.707-13.459,3.089-20.872,2.524c-7.191-0.418-13.212-2.604-18.53-5.681c-0.768-4.271-2.517-8.349-5.177-11.885
			L408.4,178.227c0,0,0.96-6.683,2.004-14.226c-9.814,1.506-22.254,1.848-26.577-7.047c-4.449-9.154,4.453-18.649,7.378-21.769
			c2.387-2.547,5.62-5.531,8.487-7.764l-0.188-0.113c-7.037-4.271-15.868-4.265-22.898,0.017l-10.343-2.415
			c-1.882-0.439-3.863-0.048-5.435,1.077c-1.572,1.124-2.584,2.87-2.777,4.794l-0.858,8.554c-0.7,6.98,3.255,13.594,9.737,16.28
			c2.79,1.156,4.974,3.424,6.039,6.251c1.065,2.826,0.914,5.966-0.417,8.677c-4.155,8.459-9.897,20.635-13.859,30.999
			l-44.171-25.848c-4.326-2.532-9.885-1.077-12.416,3.249c-2.532,4.326-1.077,9.885,3.249,12.416l48.939,28.639l-0.076,0.109
			c3.585,3.104,27.319,21.523,49.052,38.064c2.162-5.105,5.387-10.011,9.654-14.335c1.891-1.917,4.977-1.937,6.893-0.046
			c1.916,1.891,1.937,4.977,0.046,6.893c-4.587,4.648-7.735,10.718-9.477,16.988c-2.685,9.666-3.492,24.147-0.881,34.833
			l-10.309,27.878c-45.116,1.263-81.308,38.205-81.308,83.626c0,46.219,37.468,83.686,83.686,83.686s83.686-37.468,83.686-83.686
			c0-40.606-28.923-74.446-67.289-82.07l8.747-23.656c8.953-6.136,18.753-14.432,24.283-22.649
			c2.724-4.046,6.901-13.602,7.375-18.565c6.716,1.494,13.058,1.796,19.114,1.06c6.825-0.683,15.364-3.056,23.629-7.234
			c3.14-1.572,6.393-3.486,9.509-5.732C511.896,254.255,512.373,252.545,511.683,251.085z"/>
	</g>
</g>
<g>
	<g>
		<path d="M419.047,139.836c-2.785-5.728-8.306-8.79-11.254-7.357c-2.946,1.432-18.859,14.909-16.075,20.64
			c2.785,5.729,23.213,1.545,26.161,0.112C420.825,151.799,421.832,145.566,419.047,139.836z"/>
	</g>
</g>
<g>
</g>
<g>
</g>
<g>
</g>
<g>
</g>
<g>
</g>
<g>
</g>
<g>
</g>
<g>
</g>
<g>
</g>
<g>
</g>
<g>
</g>
<g>
</g>
<g>
</g>
<g>
</g>
<g>
</g>
</svg>
