<?xml version="1.0" encoding="iso-8859-1"?>
<!-- Generator: Adobe Illustrator 19.0.0, SVG Export Plug-In . SVG Version: 6.00 Build 0)  -->
<svg version="1.1" id="Layer_1" xmlns="http://www.w3.org/2000/svg" xmlns:xlink="http://www.w3.org/1999/xlink" x="0px" y="0px"
	 viewBox="0 0 511.999 511.999" style="enable-background:new 0 0 511.999 511.999;" xml:space="preserve">
<g>
	<g>
		<circle cx="92.996" cy="86.548" r="39.909"/>
	</g>
</g>
<g>
	<g>
		<path d="M511.64,365.692c-0.803-1.667-2.83-2.653-5.028-1.594c-8.582,4.121-17.939,6.362-26.779,6.851
			c-9.371,0.315-17.462-0.98-26.541-6.147c-0.875-4.685-2.828-9.151-5.778-13.015l-49.881-65.327c0,0,1.002-7.345,2.09-15.636
			c-3.675,0.588-7.571,0.977-11.012,0.977c-9.303,0-15.437-2.865-18.233-8.517c-4.958-10.02,4.747-20.518,7.937-23.968
			c2.602-2.815,6.13-6.119,9.263-8.594l-0.207-0.124c-3.825-2.286-8.12-3.427-12.415-3.427c-4.419,0-8.836,1.208-12.736,3.621
			l-11.379-2.573c-2.029-0.459-4.209-0.047-5.961,1.225c-1.718,1.246-2.816,3.173-3.013,5.287l-0.876,9.403
			c-0.715,7.672,3.68,14.907,10.82,17.806c3.074,1.248,5.49,3.723,6.682,6.82c1.19,3.096,1.05,6.547-0.391,9.534
			c-4.438,9.197-10.542,22.378-14.806,33.691c-14.038-11.349-11.825-9.559-34.272-27.705c-4.278-3.461-10.558-2.797-14.018,1.486
			c-3.461,4.281-2.796,10.558,1.486,14.019c50.848,41.104,78.688,61.514,96.03,74.522c2.334-5.624,5.841-11.037,10.495-15.819
			c2.063-2.12,5.453-2.165,7.571-0.104c2.119,2.062,2.166,5.452,0.102,7.571c-5.364,5.511-8.344,12.109-10.479,18.667
			c-2.808,8.625-3.553,28.346-0.05,39.95l-8.906,24.615c-1.872,5.177,0.806,10.892,5.982,12.765
			c5.182,1.874,10.893-0.808,12.766-5.982l10.06-27.805c22.892-9.376,31.265-31.07,33.058-44.507
			c10.211,2.197,18.656,1.871,28.44-0.28c10.017-2.392,20.177-6.847,28.86-13.199C511.9,369.171,512.41,367.289,511.64,365.692z"/>
	</g>
</g>
<g>
	<g>
		<path d="M409.032,244.212c-2.582-5.219-7.232-8.392-10.578-8.392c-0.675,0-1.297,0.129-1.84,0.398
			c-3.225,1.596-20.6,16.521-17.497,22.795c1.163,2.351,5.036,3.153,9.595,3.153c7.608,0,17.124-2.234,19.14-3.232
			C411.077,257.338,412.135,250.485,409.032,244.212z"/>
	</g>
</g>
<g>
	<g>
		<path d="M306.193,8.077c-52.418,0-95.064,42.645-95.064,95.064c0,14.424,3.245,28.099,9.018,40.358l-34.338,19.021l-47.476-12.89
			c-4.875-6.715-12.771-11.099-21.705-11.139l-37.49-0.169c-7.206-0.032-14.125,2.821-19.213,7.924
			c-4.942,4.957-7.748,11.636-7.857,18.618l0.004,1.519L4.821,224.027c-4.011,5.031-5.253,11.75-3.274,17.901
			c4.575,14.237,17.89,55.68,24.006,74.713c3.231,10.048,14.035,15.711,24.228,12.433c10.096-3.249,15.698-14.078,12.433-24.228
			l-20.4-63.408l45.652-57.268l-25.893,58.321l18.24,56.693c6.354,19.746-4.513,41.099-24.369,47.488
			c-3.587,1.154-7.302,1.747-11.048,1.798l-4.863,30.419L1.702,472.121c-4.799,11.825,0.899,25.302,12.724,30.1
			s25.302-0.899,30.1-12.724l38.821-95.671c0.658-1.621,1.129-3.313,1.406-5.041l12.472-78.033l20.287,78.937l1.91,91.601
			c0.265,12.728,10.786,22.882,23.584,22.62c12.76-0.266,22.888-10.825,22.62-23.584l-1.965-94.278
			c-0.037-1.778-0.28-3.548-0.723-5.271l-20.03-77.935l0.454-111.943l39.894,10.832c4.724,1.283,9.893,0.745,14.376-1.739
			l45.919-25.437c16.742,14.702,38.659,23.645,62.638,23.645c52.418,0,95.063-42.645,95.063-95.063
			C401.254,50.722,358.61,8.077,306.193,8.077z M306.193,175.367c-16.184,0-31.141-5.35-43.196-14.374
			c3.558-5.735,3.999-13.17,0.497-19.493c-4.615-8.333-14.493-11.879-23.191-8.831c-4.059-9.022-6.339-19.012-6.339-29.53
			c0-39.827,32.401-72.228,72.228-72.228c39.825,0,72.227,32.401,72.227,72.228S346.018,175.367,306.193,175.367z"/>
	</g>
</g>
<g>
</g>
<g>
</g>
<g>
</g>
<g>
</g>
<g>
</g>
<g>
</g>
<g>
</g>
<g>
</g>
<g>
</g>
<g>
</g>
<g>
</g>
<g>
</g>
<g>
</g>
<g>
</g>
<g>
</g>
</svg>
